Hanif_Shallow_5_0_grf.mot
version=1
nRows=48
nColumns=19
inDegrees=yes
endheader
time	right_ground_force_vx	right_ground_force_vy	right_ground_force_vz	right_ground_force_px	right_ground_force_py	right_ground_force_pz	right_ground_torque_x	right_ground_torque_y	right_ground_torque_z	left_ground_force_vx	left_ground_force_vy	left_ground_force_vz	left_ground_force_px	left_ground_force_py	left_ground_force_pz	left_ground_torque_x	left_ground_torque_y	left_ground_torque_z
2.800000	-5.109630	273.527000	55.997500	0.217244	0.000000	-1.419400	-23.719800	0.384007	5.083600	-4.544750	282.138000	-60.270900	0.216259	0.000000	-0.981974	22.344500	-2.567670	5.421930
2.805000	-4.625670	276.944000	56.738400	0.216635	0.000000	-1.420410	-23.735700	0.511616	4.986340	-4.683690	286.545000	-61.020200	0.216670	0.000000	-0.983484	23.125900	-2.502210	5.606530
2.810000	-3.650340	277.488000	56.655000	0.216829	0.000000	-1.420220	-23.825800	0.543752	5.039320	-4.892240	290.715000	-62.469100	0.216782	0.000000	-0.983526	23.475900	-2.467590	5.719060
2.815000	-3.806650	279.039000	56.578300	0.216863	0.000000	-1.421080	-23.721300	0.534102	5.072700	-5.296840	292.556000	-62.298000	0.216408	0.000000	-0.982692	23.386800	-2.557460	5.652360
2.820000	-3.915420	281.781000	55.941100	0.217799	0.000000	-1.421030	-23.970500	0.664368	5.411170	-5.289890	296.084000	-62.905400	0.215572	0.000000	-0.982341	23.562200	-2.555260	5.450870
2.825000	-4.004110	281.640000	56.399100	0.216388	0.000000	-1.421000	-23.968800	0.708851	5.010770	-5.155970	296.193000	-62.724100	0.215717	0.000000	-0.983343	23.866500	-2.588640	5.499800
2.830000	-4.980070	282.056000	55.819100	0.215967	0.000000	-1.422350	-23.626700	0.555968	4.872390	-5.091880	297.127000	-62.989900	0.215790	0.000000	-0.982633	23.729600	-2.599020	5.539550
2.835000	-5.704650	280.217000	55.850300	0.216008	0.000000	-1.421770	-23.641800	0.542683	4.867910	-5.144550	297.305000	-62.233200	0.215838	0.000000	-0.982573	23.728900	-2.741850	5.574650
2.840000	-6.444080	279.299000	55.236300	0.214420	0.000000	-1.422540	-23.355800	0.698219	4.429420	-5.217860	296.849000	-61.593600	0.215158	0.000000	-0.982100	23.553000	-2.767700	5.353290
2.845000	-5.832570	276.324000	55.694900	0.214233	0.000000	-1.422060	-23.236600	0.716008	4.335620	-4.883340	294.059000	-61.148700	0.214424	0.000000	-0.981524	23.158000	-2.779640	5.082760
2.850000	-5.182850	278.913000	55.405600	0.212636	0.000000	-1.422910	-23.212300	0.951593	3.938010	-4.839790	293.070000	-61.166300	0.214453	0.000000	-0.981621	23.108900	-2.826490	5.089520
2.855000	-5.119850	282.029000	55.807400	0.212365	0.000000	-1.424070	-23.146000	1.097390	3.924070	-4.206120	295.184000	-61.712600	0.213292	0.000000	-0.980535	22.944700	-2.897470	4.769130
2.860000	-4.795230	281.637000	55.295600	0.211395	0.000000	-1.423750	-23.203000	1.285790	3.662860	-3.843010	291.773000	-61.808500	0.212858	0.000000	-0.980904	22.785100	-3.066790	4.633040
2.865000	-4.389000	282.790000	54.828600	0.210691	0.000000	-1.423650	-23.323400	1.431520	3.484670	-3.205660	292.479000	-62.506700	0.211413	0.000000	-0.979439	22.402400	-3.205660	4.227990
2.870000	-4.550430	285.635000	55.228400	0.209989	0.000000	-1.425090	-23.149900	1.605830	3.341560	-2.943180	289.721000	-61.921400	0.211111	0.000000	-0.980415	22.472200	-3.357430	4.132430
2.875000	-4.386090	287.875000	55.343300	0.209583	0.000000	-1.424110	-23.614800	1.714290	3.259180	-2.157070	291.984000	-61.563900	0.209937	0.000000	-0.979740	22.439100	-3.600050	3.824530
2.880000	-4.816990	290.612000	55.195100	0.209131	0.000000	-1.423790	-23.935700	1.760480	3.158740	-2.519100	290.939000	-61.335700	0.209727	0.000000	-0.980627	22.623200	-3.640490	3.764390
2.885000	-4.950240	293.983000	55.133700	0.209341	0.000000	-1.424750	-23.933000	1.889870	3.272500	-2.825880	292.076000	-61.185100	0.208954	0.000000	-0.978519	22.100600	-3.703340	3.550440
2.890000	-4.812960	294.804000	55.325200	0.208537	0.000000	-1.425010	-23.921200	1.915120	3.037980	-2.121200	290.703000	-61.066400	0.208786	0.000000	-0.980385	22.529200	-3.843310	3.508590
2.895000	-5.113290	298.234000	56.088400	0.208331	0.000000	-1.425640	-24.015000	1.967240	3.019830	-2.580440	294.186000	-60.615400	0.207897	0.000000	-0.978908	22.371200	-3.914400	3.268780
2.900000	-5.603380	299.815000	56.383100	0.207873	0.000000	-1.425010	-24.335600	2.028290	2.910650	-1.515010	292.752000	-61.136900	0.207441	0.000000	-0.979686	22.473600	-4.028170	3.138770
2.905000	-5.718910	301.517000	56.931600	0.206684	0.000000	-1.426630	-23.984900	2.034250	2.557020	-2.347550	291.891000	-60.629000	0.206476	0.000000	-0.979322	22.316200	-4.199680	2.881280
2.910000	-6.064170	300.918000	57.251700	0.205480	0.000000	-1.426760	-23.903200	2.131470	2.205710	-1.865710	291.658000	-60.376900	0.207455	0.000000	-0.979596	22.370900	-4.254600	3.177840
2.915000	-5.416430	304.530000	57.762600	0.205992	0.000000	-1.427010	-24.107900	2.219510	2.392480	-1.935500	289.080000	-59.582900	0.206921	0.000000	-0.980060	22.309200	-4.315800	3.006020
2.920000	-5.250820	306.243000	57.145500	0.205876	0.000000	-1.427850	-23.986800	2.342990	2.375910	-2.685580	290.960000	-58.812500	0.206132	0.000000	-0.979165	22.205800	-4.277310	2.762920
2.925000	-4.966050	310.060000	58.023900	0.204856	0.000000	-1.428230	-24.161700	2.324020	2.065520	-3.180860	291.896000	-58.319700	0.206024	0.000000	-0.979136	22.278100	-4.382630	2.752630
2.930000	-4.696770	312.566000	58.488700	0.203962	0.000000	-1.428790	-24.181400	2.606580	1.837340	-3.929340	287.802000	-57.843200	0.205782	0.000000	-0.978788	21.879600	-4.332990	2.661850
2.935000	-3.727580	314.371000	59.009800	0.202627	0.000000	-1.430160	-23.879700	2.767810	1.427630	-4.652480	289.024000	-57.184800	0.205520	0.000000	-0.978409	21.875900	-4.350720	2.588030
2.940000	-3.282010	315.301000	59.703500	0.202480	0.000000	-1.429980	-24.002800	2.882810	1.403170	-4.857460	292.080000	-56.554400	0.205995	0.000000	-0.978700	22.194700	-4.366430	2.733220
2.945000	-2.147640	318.599000	59.915000	0.202063	0.000000	-1.430590	-24.049200	3.066210	1.287500	-5.381760	290.730000	-56.614000	0.205990	0.000000	-0.978640	22.084600	-4.316790	2.727280
2.950000	-1.260340	320.477000	60.341200	0.200853	0.000000	-1.430420	-24.233600	3.190000	0.901705	-5.417350	292.732000	-56.722600	0.206690	0.000000	-0.978143	22.092500	-4.380710	2.959510
2.955000	-0.283795	322.926000	61.112300	0.200118	0.000000	-1.429940	-24.565000	3.359160	0.679405	-5.372080	293.415000	-56.462500	0.206868	0.000000	-0.978794	22.333700	-4.377140	3.010340
2.960000	0.513605	324.237000	61.817300	0.199726	0.000000	-1.431610	-24.114200	3.556540	0.578764	-5.445410	296.217000	-56.561100	0.206883	0.000000	-0.978740	22.530500	-4.373140	3.026880
2.965000	1.135380	326.256000	61.207600	0.198697	0.000000	-1.431600	-24.260600	3.723780	0.242846	-5.482780	298.596000	-57.119400	0.207317	0.000000	-0.980039	23.100200	-4.428220	3.192730
2.970000	1.387110	328.717000	61.461900	0.198538	0.000000	-1.431350	-24.522600	3.891660	0.210763	-5.982420	303.443000	-57.476800	0.207088	0.000000	-0.978595	23.043400	-4.442780	3.155160
2.975000	1.241300	331.714000	60.878700	0.198087	0.000000	-1.431180	-24.805100	3.940460	0.050068	-5.632840	304.569000	-57.697600	0.207736	0.000000	-0.978669	23.143700	-4.382860	3.351640
2.980000	1.173600	333.153000	60.587900	0.197531	0.000000	-1.431120	-24.932700	4.122250	-0.116130	-5.350540	307.161000	-58.178900	0.207182	0.000000	-0.978681	23.337800	-4.438590	3.202600
2.985000	1.731670	335.197000	60.648600	0.196947	0.000000	-1.432110	-24.748600	4.255840	-0.309989	-4.953580	309.321000	-57.974200	0.207963	0.000000	-0.980111	23.939500	-4.614130	3.486010
2.990000	2.218420	338.914000	60.734500	0.196504	0.000000	-1.431790	-25.125700	4.450500	-0.454851	-4.462370	311.381000	-57.900000	0.207619	0.000000	-0.979210	23.808700	-4.693330	3.390360
2.995000	2.304520	340.162000	61.102900	0.195653	0.000000	-1.432360	-25.020900	4.506540	-0.747429	-4.810170	312.623000	-57.500600	0.208174	0.000000	-0.980004	24.158800	-4.720540	3.578320
3.000000	2.210260	341.824000	61.018400	0.195253	0.000000	-1.433150	-24.873400	4.644250	-0.874165	-4.862460	313.761000	-57.046600	0.207942	0.000000	-0.980143	24.291500	-4.790880	3.513480
3.005000	3.605420	339.034000	61.209600	0.194793	0.000000	-1.432320	-24.936600	4.778480	-1.008110	-5.024110	314.802000	-56.805500	0.208386	0.000000	-0.980047	24.345700	-4.844220	3.669920
3.010000	3.791560	340.651000	61.040500	0.193969	0.000000	-1.433240	-24.736000	4.995390	-1.274610	-4.891560	314.416000	-56.857100	0.208271	0.000000	-0.979400	24.111300	-4.931830	3.645040
3.015000	5.053880	340.426000	61.389900	0.193051	0.000000	-1.433040	-24.773300	5.180240	-1.574920	-5.452570	314.914000	-57.191100	0.207729	0.000000	-0.980008	24.351400	-4.933090	3.486300
3.020000	4.838450	341.206000	61.066400	0.192107	0.000000	-1.434000	-24.505200	5.272150	-1.898200	-5.462700	314.319000	-56.751800	0.208404	0.000000	-0.979336	24.094900	-4.924600	3.692080
3.025000	5.221450	340.136000	60.786200	0.192116	0.000000	-1.434790	-24.151300	5.338630	-1.879500	-5.397930	312.879000	-56.283800	0.208090	0.000000	-0.979249	23.958000	-5.013770	3.589030
3.030000	5.590870	339.980000	60.576000	0.191355	0.000000	-1.434470	-24.244200	5.481180	-2.127090	-5.239190	312.324000	-56.264100	0.207622	0.000000	-0.979409	23.964400	-5.130870	3.454280
3.035000	6.023320	336.751000	61.375000	0.190940	0.000000	-1.433460	-24.347100	5.586610	-2.213620	-5.129860	310.023000	-55.758100	0.208677	0.000000	-0.980042	23.984500	-5.151420	3.774700
